<svg xmlns="http://www.w3.org/2000/svg" width="800" height="500" viewBox="0 0 800 500">
<defs><linearGradient id="bg" x1="0" y1="0" x2="1" y2="1"><stop stop-color="#102d2e"/><stop offset="1" stop-color="#194845"/></linearGradient><radialGradient id="glow"><stop stop-color="#48D4B8" stop-opacity=".30"/><stop offset="1" stop-color="#48D4B8" stop-opacity="0"/></radialGradient><filter id="blur"><feGaussianBlur stdDeviation="24"/></filter></defs>
<rect width="800" height="500" rx="42" fill="url(#bg)"/><circle cx="367" cy="267" r="152" fill="url(#glow)" filter="url(#blur)"/><circle cx="640" cy="90" r="100" fill="#48D4B8" opacity=".08"/>
<g opacity=".13" stroke="#88e3d1" stroke-width="1"><path d="M0 100H800M0 200H800M0 300H800M0 400H800"/><path d="M100 0V500M200 0V500M300 0V500M400 0V500M500 0V500M600 0V500M700 0V500"/></g>
<g transform="rotate(-120 400 250)" opacity=".98"><path d="M295 205c-30 30-75 0-99 26-23 25 3 67 38 49l48-48 140 140-48 48c-18 35 24 61 49 38 26-24-4-69 26-99l-55-55 55-55c-30-30-4-75-26-99-25-23-67 3-49 38l48 48-140 140-48-48c-35-18-61 24-38 49 24 26 69-4 99 26l55-55 55 55 55-55-55-55-55 55-55-55 55-55Z" fill="none" stroke="#48D4B8" stroke-width="13" stroke-linejoin="round"/></g>
<circle cx="82" cy="74" r="7" fill="#48D4B8"/><text x="105" y="82" fill="#88e3d1" font-family="Arial,sans-serif" font-size="18" font-weight="700" letter-spacing="3">MEDSPACE • ORTHOPÉDIE</text>
<text x="700" y="448" fill="#88e3d1" opacity=".55" font-family="Arial,sans-serif" font-size="14" text-anchor="end">MEDICAL STUDY VISUAL</text>
</svg>