<svg xmlns="http://www.w3.org/2000/svg" width="800" height="500" viewBox="0 0 800 500">
<defs><linearGradient id="bg" x1="0" y1="0" x2="1" y2="1"><stop stop-color="#122e32"/><stop offset="1" stop-color="#1e494d"/></linearGradient><radialGradient id="glow"><stop stop-color="#58D8D4" stop-opacity=".30"/><stop offset="1" stop-color="#58D8D4" stop-opacity="0"/></radialGradient><filter id="blur"><feGaussianBlur stdDeviation="24"/></filter></defs>
<rect width="800" height="500" rx="42" fill="url(#bg)"/><circle cx="310" cy="162" r="181" fill="url(#glow)" filter="url(#blur)"/><circle cx="640" cy="90" r="119" fill="#58D8D4" opacity=".08"/>
<g opacity=".13" stroke="#92e6e3" stroke-width="1"><path d="M0 100H800M0 200H800M0 300H800M0 400H800"/><path d="M100 0V500M200 0V500M300 0V500M400 0V500M500 0V500M600 0V500M700 0V500"/></g>
<g transform="rotate(-130 400 250)" opacity=".98"><circle cx="400" cy="250" r="105" fill="none" stroke="#58D8D4" stroke-width="15"/><path d="M400 100v300M250 250h300" stroke="#92e6e3" stroke-width="8" stroke-linecap="round"/></g>
<circle cx="82" cy="74" r="7" fill="#58D8D4"/><text x="105" y="82" fill="#92e6e3" font-family="Arial,sans-serif" font-size="18" font-weight="700" letter-spacing="3">MEDSPACE • SANTÉ PUBLIQUE</text>
<text x="700" y="448" fill="#92e6e3" opacity=".55" font-family="Arial,sans-serif" font-size="14" text-anchor="end">MEDICAL STUDY VISUAL</text>
</svg>