<svg xmlns="http://www.w3.org/2000/svg" viewBox="0 0 420 420" role="img" aria-label="Maladie infectieuse">
<defs><radialGradient id="g" cx="35%" cy="30%"><stop stop-color="#9BD35B" stop-opacity=".95"/><stop offset="1" stop-color="#9BD35B" stop-opacity=".12"/></radialGradient><linearGradient id="bg" x1="0" y1="0" x2="1" y2="1"><stop stop-color="#08161C"/><stop offset="1" stop-color="#10262D"/></linearGradient><filter id="blur"><feGaussianBlur stdDeviation="22"/></filter></defs>
<rect width="420" height="420" rx="42" fill="url(#bg)"/><circle cx="105" cy="92" r="110" fill="url(#g)" filter="url(#blur)"/><circle cx="330" cy="335" r="120" fill="#9BD35B" opacity=".08"/>
<path d="M35 330C125 270 250 385 390 285" fill="none" stroke="#9BD35B" stroke-opacity=".13" stroke-width="2"/><path d="M25 110C135 160 250 40 405 105" fill="none" stroke="white" stroke-opacity=".05"/>
<g fill="none" stroke="#9BD35B" stroke-width="7" stroke-linecap="round" stroke-linejoin="round" opacity=".96"><circle cx="210" cy="230" r="70"/><path d="M210 125v35M210 300v35M105 230h35M280 230h35M136 156l25 25M259 279l25 25M284 156l-25 25M161 279l-25 25"/><circle cx="185" cy="215" r="7"/><circle cx="235" cy="248" r="7"/></g>
<g fill="#9BD35B" opacity=".9"><circle cx="55" cy="65" r="4"/><circle cx="365" cy="74" r="3"/><circle cx="342" cy="355" r="5"/></g>
<text x="32" y="382" fill="white" fill-opacity=".72" font-family="Arial,sans-serif" font-size="13" font-weight="700" letter-spacing="2">MEDSPACE • MALADIE INFECTIEUSE</text>
</svg>